<svg id="SVGRoot" height="512" viewBox="0 0 24 24" width="512" xmlns="http://www.w3.org/2000/svg" xmlns:svg="http://www.w3.org/2000/svg"><g id="g4355"><path id="path4330" d="m12 2c-5.5169087 0-10 4.4830913-10 10 0 5.516908 4.4830913 10 10 10 5.516908 0 10-4.483092 10-10a.50005.50005 0 0 0 0-.002c-.0006-.192709-.0058-.385773-.01758-.578125a.50005.50005 0 0 0 -.597654-.458937c-.126441.025365-.25581.038454-.384766.039062-1.109834 0-1.998952-.888473-2-1.9980469v-.0019531c.0017-.2818937.06289-.5598246.179688-.8164062a.50005.50005 0 0 0 -.529297-.7011719c-.05182.00779-.103983.011931-.15625.015625-1.105134-.00356-1.988627-.8870541-1.992188-1.9921875.0037-.052267.0078-.1044282.01563-.15625a.50005.50005 0 0 0 -.701177-.5292969c-.25658.1167944-.534512.1780296-.816406.1796875-1.109834 0-1.998952-.8884735-2-1.9980469v-.0019531c.000608-.128956.0137-.2583251.03906-.3847656a.50005.50005 0 0 0 -.458982-.5976563c-.192352-.011733-.385416-.0169782-.578125-.0175781a.50005.50005 0 0 0 -.001953 0zm-2.5 4c.822502 0 1.5.6774976 1.5 1.5s-.677498 1.5-1.5 1.5c-.8225024 0-1.5-.6774976-1.5-1.5s.6774976-1.5 1.5-1.5zm2.5 4.5c.822502 0 1.5.677498 1.5 1.5s-.677498 1.5-1.5 1.5-1.5-.677498-1.5-1.5.677498-1.5 1.5-1.5zm-5.5.5c.8225024 0 1.5.677498 1.5 1.5s-.6774976 1.5-1.5 1.5-1.5-.677498-1.5-1.5.6774976-1.5 1.5-1.5zm10 3c.822502 0 1.5.677498 1.5 1.5s-.677498 1.5-1.5 1.5-1.5-.677498-1.5-1.5.677498-1.5 1.5-1.5zm-6.5 2c.822502 0 1.5.677498 1.5 1.5s-.677498 1.5-1.5 1.5c-.8225024 0-1.5-.677498-1.5-1.5s.6774976-1.5 1.5-1.5z" stroke-linecap="round" stroke-linejoin="round"/></g></svg>